<?xml version="1.0" standalone="no"?>
<!DOCTYPE svg PUBLIC "-//W3C//DTD SVG 20010904//EN"
 "http://www.w3.org/TR/2001/REC-SVG-20010904/DTD/svg10.dtd">
<svg version="1.0" xmlns="http://www.w3.org/2000/svg"
 width="200.000000pt" height="220.000000pt" viewBox="0 0 200.000000 220.000000"
 preserveAspectRatio="xMidYMid meet">

<g transform="translate(0.000000,220.000000) scale(0.100000,-0.100000)"
fill="#000000" stroke="none">
<path d="M210 2076 c0 -2 9 -23 19 -47 10 -24 22 -68 26 -96 4 -29 12 -53 18
-53 6 0 24 -12 39 -27 38 -37 36 -12 -5 56 -49 83 -85 155 -80 164 2 4 -1 7
-6 7 -6 0 -11 -2 -11 -4z"/>
<path d="M266 2012 c23 -42 30 -48 32 -31 3 14 -7 33 -28 53 l-33 31 29 -53z"/>
<path d="M314 1966 c-4 -12 4 -40 21 -75 24 -46 30 -52 33 -33 2 12 8 22 13
22 11 0 11 -3 -1 -36 -6 -14 -7 -42 -4 -62 6 -33 8 -34 20 -17 20 27 26 14 9
-19 -8 -15 -13 -31 -11 -35 3 -4 1 -13 -5 -21 -7 -13 -9 -12 -9 1 0 10 -17 23
-41 33 -23 9 -39 19 -37 22 3 2 18 0 33 -6 36 -14 39 -9 26 33 -10 29 -77 97
-96 97 -9 0 4 -87 21 -141 17 -52 36 -74 75 -84 l27 -7 -25 -26 c-29 -31 -83
-113 -112 -171 -53 -102 -101 -299 -101 -409 0 -48 -2 -53 -19 -47 -11 3 -22
2 -25 -3 -11 -18 6 -172 19 -172 7 0 18 -7 25 -15 27 -32 29 -12 4 43 -14 31
-27 64 -29 72 -2 8 -6 29 -9 45 l-6 30 14 -30 c9 -16 15 -36 16 -42 0 -15 20
-18 20 -3 0 6 4 10 9 10 5 0 5 -12 -1 -27 -7 -21 -6 -37 7 -68 16 -38 18 -39
32 -20 14 19 14 18 8 -14 -5 -25 -1 -46 16 -83 l23 -50 13 34 c12 32 12 31 7
-18 -5 -40 -2 -60 15 -92 12 -23 21 -45 21 -49 -1 -4 -14 17 -29 47 -25 48
-35 58 -82 77 -51 20 -54 20 -57 3 -5 -27 42 -114 78 -144 21 -17 43 -26 66
-26 19 0 34 -4 34 -9 0 -5 23 -34 51 -65 38 -42 47 -57 36 -62 -8 -3 -63 -4
-121 -2 -58 2 -106 2 -106 0 0 -2 4 -8 10 -15 5 -7 22 -27 37 -46 57 -71 156
-90 244 -45 l51 25 46 -30 c76 -48 191 -99 282 -123 122 -32 327 -32 455 1
202 53 377 163 497 314 67 85 41 70 -69 -41 -118 -117 -180 -158 -311 -208
-141 -53 -234 -67 -391 -61 -111 4 -150 9 -214 31 -85 29 -169 69 -236 114
l-43 30 25 17 c31 20 57 82 57 137 l0 41 -26 -24 c-29 -27 -46 -61 -33 -69 4
-3 -3 -19 -17 -35 l-25 -30 5 30 c3 17 -1 41 -9 55 -14 24 -14 23 -15 -28 l0
-53 -29 20 c-15 11 -55 53 -87 92 l-59 72 0 101 c0 117 -14 154 -91 246 l-46
55 5 115 c8 197 65 364 172 507 31 40 59 73 64 73 5 0 25 -7 44 -15 51 -21
100 -19 207 9 98 25 137 49 110 66 -22 14 -86 23 -110 15 -22 -7 -28 -41 -7
-48 6 -2 -7 -10 -30 -17 -24 -7 -43 -16 -43 -20 0 -9 -102 9 -113 19 -5 5 14
6 42 3 48 -4 50 -4 45 19 -5 23 -5 23 7 4 6 -11 13 -21 14 -23 2 -2 14 0 29 4
19 4 26 13 26 31 0 23 -2 24 -42 18 -24 -3 -58 -11 -75 -16 -73 -23 -69 -4 12
53 230 164 547 219 791 138 52 -17 61 -17 74 -4 20 20 8 27 -93 54 -267 72
-579 10 -814 -164 l-60 -44 -6 55 c-6 61 -42 140 -87 192 -26 30 -30 32 -36
17z m-58 -1651 c41 -28 63 -33 44 -10 -8 10 -9 15 -1 15 6 0 16 -9 23 -20 7
-11 23 -20 34 -20 18 0 21 5 17 23 -5 21 -4 21 18 -5 13 -15 35 -29 49 -31 23
-4 23 -4 -4 -6 -16 0 -38 -9 -48 -18 -17 -15 -18 -15 -13 -1 8 20 -25 33 -62
24 -15 -4 -22 -3 -19 3 4 5 -9 17 -28 26 -32 15 -67 45 -53 45 4 0 23 -11 43
-25z"/>
<path d="M113 783 c3 -10 8 -34 11 -53 5 -31 11 -37 55 -53 27 -9 52 -17 55
-17 18 0 -47 98 -78 118 -43 27 -49 27 -43 5z"/>
<path d="M530 747 c0 -1 4 -16 9 -33 5 -18 5 -53 -1 -86 -8 -49 -7 -61 11 -94
l21 -39 -5 60 c-5 47 -4 56 5 42 7 -10 10 -43 8 -72 -3 -51 -2 -53 15 -38 9 9
17 23 17 32 1 25 -64 231 -72 231 -5 0 -8 -1 -8 -3z"/>
<path d="M511 505 c-10 -39 -9 -48 4 -61 8 -9 15 -21 15 -27 0 -7 5 -4 11 6 7
12 7 34 -1 72 -6 30 -13 55 -15 55 -1 0 -8 -20 -14 -45z"/>
</g>
</svg>
